<?xml version="1.0" standalone="no"?>
<!DOCTYPE svg PUBLIC "-//W3C//DTD SVG 20010904//EN"
 "http://www.w3.org/TR/2001/REC-SVG-20010904/DTD/svg10.dtd">
<svg version="1.0" xmlns="http://www.w3.org/2000/svg"
 width="300.000000pt" height="297.000000pt" viewBox="0 0 300.000000 297.000000"
 preserveAspectRatio="xMidYMid meet">
<metadata>
Created by potrace 1.10, written by Peter Selinger 2001-2011
</metadata>
<g transform="translate(0.000000,297.000000) scale(0.100000,-0.100000)"
fill="#000000" stroke="none">
<path d="M1781 2046 c2 -2 42 -6 89 -9 59 -3 73 -3 45 3 -40 9 -142 13 -134 6z"/>
<path d="M2042 2011 c166 -54 248 -156 235 -292 -7 -85 -82 -230 -202 -394
-94 -129 -135 -194 -135 -215 0 -18 52 -60 74 -60 16 1 13 5 -14 18 -20 10
-36 26 -38 38 -2 12 19 52 50 97 29 42 85 123 124 179 82 118 124 199 148 280
21 73 20 101 -4 168 -34 95 -140 173 -265 195 -16 3 -4 -4 27 -14z"/>
<path d="M1805 1944 c-20 -15 -19 -16 14 -43 40 -33 40 -32 -69 -51 -146 -25
-592 -159 -606 -181 -3 -6 2 -29 12 -50 l17 -40 -39 -42 c-21 -23 -43 -44 -48
-48 -10 -8 1 -29 15 -29 6 0 8 4 5 9 -3 5 14 30 39 56 25 25 45 48 45 50 0 3
-8 20 -17 40 -10 22 -13 39 -7 44 28 27 527 171 650 188 24 3 47 10 50 15 4 5
-9 22 -27 38 -52 44 -17 47 98 10 116 -38 141 -50 190 -93 29 -25 34 -27 25
-10 -21 39 -74 70 -177 106 -136 46 -147 48 -170 31z"/>
<path d="M1476 1592 c-3 -5 4 -17 16 -26 18 -16 20 -16 15 -2 -10 26 9 18 37
-15 27 -31 34 -59 16 -59 -5 0 -10 -4 -10 -10 0 -5 7 -10 15 -10 10 0 15 10
15 31 0 48 -85 122 -104 91z"/>
<path d="M1476 1490 c-102 -78 -277 -99 -435 -54 l-24 7 6 -74 5 -75 -54 -28
c-60 -32 -130 -102 -140 -141 -9 -36 14 -84 50 -106 44 -27 56 -24 15 4 -38
26 -55 62 -45 100 8 34 79 101 141 135 54 30 55 33 39 131 -5 34 -5 34 28 27
137 -29 226 -27 328 9 40 14 150 81 150 91 0 12 -30 -1 -64 -26z"/>
<path d="M621 1134 c-2 -49 29 -123 67 -161 72 -72 220 -111 352 -92 143 20
205 32 270 54 86 30 200 85 200 96 0 12 -27 12 -35 -1 -13 -21 -170 -82 -265
-104 -190 -44 -342 -41 -438 8 -86 44 -126 97 -142 191 -7 36 -8 37 -9 9z"/>
<path d="M2381 1116 c-18 -22 -240 -132 -326 -161 -107 -37 -197 -44 -242 -20
-18 10 -36 29 -39 42 -4 13 -9 22 -12 19 -2 -3 1 -19 8 -35 28 -68 138 -75
300 -19 117 41 349 160 350 181 0 12 -27 8 -39 -7z"/>
</g>
</svg>
