<?xml version="1.0" standalone="no"?>
<!DOCTYPE svg PUBLIC "-//W3C//DTD SVG 20010904//EN"
 "http://www.w3.org/TR/2001/REC-SVG-20010904/DTD/svg10.dtd">
<svg version="1.0" xmlns="http://www.w3.org/2000/svg"
 width="300.000000pt" height="296.000000pt" viewBox="0 0 300.000000 296.000000"
 preserveAspectRatio="xMidYMid meet">
<metadata>
Created by potrace 1.10, written by Peter Selinger 2001-2011
</metadata>
<g transform="translate(0.000000,296.000000) scale(0.100000,-0.100000)"
fill="#000000" stroke="none">
<path d="M1313 2335 c-104 -12 -113 -16 -208 -85 -109 -78 -153 -145 -182
-275 l-16 -76 30 -41 c38 -53 67 -61 199 -56 89 3 104 6 131 28 17 14 38 42
47 62 22 49 131 128 176 128 44 0 93 -25 112 -58 10 -16 19 -61 22 -109 l6
-81 -27 -11 c-26 -10 -26 -11 -3 -6 14 2 31 5 38 5 15 0 16 89 1 159 -20 95
-106 143 -215 121 -30 -6 -68 -23 -85 -37 -30 -26 -69 -91 -69 -116 0 -36 -25
-40 -162 -27 -154 14 -172 23 -162 79 3 20 21 68 39 106 61 128 181 216 343
250 93 19 268 19 351 0 138 -33 247 -119 292 -231 23 -57 24 -70 29 -424 6
-402 3 -387 74 -485 20 -27 36 -57 36 -67 0 -25 -213 -208 -242 -208 -26 0
-105 71 -145 132 l-25 38 -52 -46 c-63 -55 -167 -109 -243 -125 -78 -16 -214
-7 -281 19 -118 46 -193 146 -212 286 -14 97 0 207 37 284 55 117 195 218 334
242 35 6 100 17 144 25 l80 14 -80 -6 c-44 -3 -108 -5 -142 -4 -44 2 -74 -4
-107 -18 -25 -12 -51 -21 -58 -21 -25 -1 -106 -59 -140 -102 -58 -72 -84 -149
-98 -285 -10 -96 -10 -135 -1 -184 33 -165 92 -223 267 -259 116 -24 171 -25
269 -5 93 20 126 33 198 84 32 23 60 41 63 41 15 0 174 -146 174 -159 0 -25
-106 -49 -348 -82 -153 -20 -434 19 -558 77 -28 13 -56 24 -63 24 -7 0 -31 11
-54 24 -59 34 -159 66 -207 66 -27 0 -47 -7 -60 -20 -25 -25 -25 -27 -1 -67
14 -21 45 -44 103 -73 45 -23 90 -47 98 -55 28 -24 108 -65 192 -96 60 -23
117 -35 203 -45 66 -7 154 -17 195 -24 79 -11 149 -8 320 16 229 32 356 67
495 135 91 44 108 46 151 20 58 -35 70 -35 113 4 41 37 44 44 102 241 24 80 3
123 -71 145 -39 12 -104 8 -266 -17 -40 -6 -55 11 -102 117 l-37 84 3 319 c2
297 1 324 -18 395 -27 98 -56 146 -126 210 -73 67 -136 99 -221 111 -89 13
-252 11 -380 -5z m1167 -1240 c23 -28 7 -163 -28 -237 -30 -63 -76 -117 -88
-105 -4 3 3 41 14 84 33 122 37 167 17 183 -20 17 -105 15 -193 -3 -64 -14
-84 -8 -61 19 33 41 142 72 250 73 57 1 80 -3 89 -14z m-361 -124 c22 -14 6
-36 -36 -49 -22 -7 -48 -21 -58 -32 -10 -11 -30 -20 -44 -20 -25 1 -26 1 -6
16 11 8 39 33 63 54 44 41 57 46 81 31z m206 -31 c0 -58 -277 -218 -481 -278
-346 -103 -721 -73 -1029 80 -99 50 -245 144 -245 158 0 23 29 20 96 -10 161
-73 406 -134 606 -151 298 -26 638 42 933 186 50 24 97 43 105 42 9 -1 15 -13
15 -27z m10 -107 c-9 -50 -15 -55 -60 -45 l-39 8 48 37 c27 20 51 37 54 37 2
0 1 -17 -3 -37z"/>
<path d="M1550 1559 c-130 -16 -205 -55 -247 -127 -24 -40 -28 -58 -28 -122 0
-90 24 -144 75 -172 45 -23 111 -23 159 1 38 20 71 51 53 51 -5 0 -16 -7 -23
-17 -19 -22 -72 -43 -111 -43 -43 0 -93 31 -115 72 -24 46 -22 161 4 197 11
14 22 34 26 43 14 40 159 98 243 98 l54 0 0 -70 c0 -85 -15 -160 -45 -223 -12
-26 -16 -42 -10 -37 7 6 23 34 36 63 19 44 23 69 23 172 1 136 8 127 -94 114z"/>
</g>
</svg>
