<?xml version="1.0" standalone="no"?>
<!DOCTYPE svg PUBLIC "-//W3C//DTD SVG 20010904//EN"
 "http://www.w3.org/TR/2001/REC-SVG-20010904/DTD/svg10.dtd">
<svg version="1.0" xmlns="http://www.w3.org/2000/svg"
 width="300.000000pt" height="300.000000pt" viewBox="0 0 300.000000 300.000000"
 preserveAspectRatio="xMidYMid meet">
<metadata>
Created by potrace 1.10, written by Peter Selinger 2001-2011
</metadata>
<g transform="translate(0.000000,300.000000) scale(0.100000,-0.100000)"
fill="#000000" stroke="none">
<path d="M1074 2970 c-25 -10 -46 -38 -101 -135 -22 -38 -84 -146 -138 -240
-54 -93 -107 -186 -118 -205 -10 -19 -30 -54 -44 -77 l-25 -43 -201 -2 -201
-3 -27 -40 c-73 -109 -202 -349 -202 -375 0 -18 62 -136 178 -336 98 -170 187
-321 197 -336 18 -27 18 -27 -10 -75 -119 -198 -172 -293 -172 -305 0 -13 206
-374 230 -403 11 -13 67 -15 415 -15 l402 0 92 -162 c51 -90 100 -169 109
-176 12 -9 73 -12 252 -10 l235 3 40 63 c22 34 65 106 96 160 30 53 104 181
164 285 l108 187 198 0 c221 0 213 -3 254 77 11 21 37 66 57 101 21 34 38 64
38 67 0 2 20 38 45 78 25 41 45 84 45 95 0 11 -41 91 -92 179 -50 87 -99 172
-108 189 -47 83 -174 301 -185 317 -11 15 -8 25 17 65 72 115 168 288 168 305
0 9 -11 35 -25 57 -14 22 -25 42 -25 45 0 2 -18 34 -40 70 -22 36 -40 67 -40
69 0 10 -75 133 -94 154 l-19 22 -401 0 -401 1 -95 167 c-62 108 -105 171
-120 179 -29 15 -421 17 -456 3z m460 -50 c26 -26 53 -71 98 -160 7 -14 32
-55 55 -92 36 -57 48 -68 70 -69 16 0 193 0 396 1 l368 1 27 -28 c25 -25 123
-194 190 -327 23 -46 23 -49 7 -65 -10 -9 -15 -11 -12 -5 4 6 0 20 -8 30 -13
18 -40 19 -777 22 -420 1 -769 4 -777 7 -10 4 -10 9 -2 19 6 7 8 16 3 20 -4 4
1 12 11 17 9 6 15 14 12 19 -3 5 -1 11 5 15 5 3 17 23 27 43 10 20 32 61 50
91 38 63 43 115 16 164 -10 18 -20 34 -23 37 -5 5 -28 45 -75 134 -31 56 -40
69 -77 104 -53 50 -46 52 180 52 l207 -1 29 -29z m-340 -185 l106 -184 -43
-73 c-106 -178 -157 -267 -157 -272 0 -4 365 -5 810 -4 446 2 810 2 810 2 0
-1 -17 -31 -38 -65 -21 -35 -67 -115 -103 -176 l-64 -113 -791 0 -792 0 -112
195 -111 194 89 153 c160 273 282 486 288 503 5 11 2 14 -12 8 -12 -4 -15 -3
-10 5 4 7 11 12 16 12 4 0 56 -83 114 -185z m-491 -475 c-7 -26 -19 -34 -41
-25 -13 5 -11 9 13 25 17 11 31 20 32 20 0 0 -1 -9 -4 -20z m-389 -19 c3 -5
-3 -11 -14 -14 -27 -7 -35 -33 -20 -65 24 -52 63 -125 70 -132 3 -3 16 -27 30
-55 13 -27 27 -52 31 -55 3 -3 21 -32 40 -65 18 -33 36 -62 39 -65 3 -3 17
-27 30 -55 14 -27 28 -51 33 -53 4 -2 7 -8 7 -13 0 -5 18 -38 40 -74 22 -36
40 -72 40 -81 0 -8 4 -13 8 -10 4 2 14 -10 22 -27 7 -18 16 -34 19 -37 3 -3
17 -29 31 -57 14 -29 28 -53 32 -53 4 0 17 -21 30 -47 13 -27 25 -50 28 -53 3
-3 12 -18 20 -35 8 -16 29 -53 47 -82 18 -29 33 -56 33 -61 0 -5 6 -15 14 -21
8 -7 26 -35 40 -64 14 -29 35 -66 45 -83 10 -17 16 -36 12 -42 -4 -7 -68 -12
-169 -15 -152 -4 -164 -6 -187 -27 -13 -12 -31 -37 -40 -54 -9 -17 -38 -69
-65 -115 -28 -46 -50 -87 -50 -91 0 -4 -6 -13 -14 -19 -24 -20 -29 -61 -10
-82 14 -16 14 -19 2 -19 -18 0 -56 35 -68 63 -6 12 -21 40 -35 62 -13 22 -34
58 -46 80 -12 22 -24 42 -28 45 -3 3 -19 31 -34 62 -34 69 -31 84 37 197 117
194 126 219 96 271 -11 19 -26 46 -32 60 -7 14 -15 27 -19 30 -4 3 -19 30 -35
60 -16 30 -32 57 -36 58 -5 2 -8 9 -8 16 0 6 -11 28 -25 49 -14 20 -22 37 -18
37 4 0 3 4 -3 8 -10 7 -33 42 -73 115 -46 81 -61 107 -84 144 -38 60 -40 78
-17 120 23 44 43 76 50 83 3 3 13 21 22 40 34 69 68 125 92 153 13 15 22 27
20 27 -8 0 50 49 58 50 4 0 9 -4 12 -9z m189 -41 l192 0 34 -62 c30 -55 299
-521 451 -783 276 -475 301 -520 293 -536 -4 -9 -55 -96 -112 -195 l-104 -179
-383 0 c-211 0 -384 2 -384 5 0 3 45 82 99 175 l98 170 201 3 c111 1 202 4
202 6 0 1 -53 95 -118 207 -65 112 -181 312 -257 444 -278 482 -382 661 -410
709 -24 40 -26 48 -11 43 10 -4 104 -7 209 -7z m2075 -355 c0 -23 -5 -35 -14
-35 -8 0 -14 2 -14 4 0 2 -3 11 -6 20 -4 11 -1 16 10 16 9 0 16 7 16 15 0 8 2
15 4 15 2 0 4 -16 4 -35z m-528 -36 c0 -20 -22 -60 -52 -93 -10 -11 -18 -26
-18 -33 0 -7 -4 -13 -8 -13 -5 0 -14 -16 -22 -35 -8 -19 -17 -35 -22 -35 -4 0
-8 -4 -8 -10 0 -5 -27 -55 -60 -110 -33 -55 -60 -105 -60 -110 0 -6 -4 -10
-10 -10 -5 0 -10 -4 -10 -9 0 -9 -79 -152 -89 -161 -7 -6 -50 -83 -66 -117 -5
-13 -13 -23 -17 -23 -5 0 -8 -6 -8 -13 0 -7 -10 -27 -23 -44 -13 -18 -32 -50
-43 -72 -30 -63 -47 -59 -85 23 -18 39 -37 72 -41 74 -4 2 -8 12 -8 23 0 10
-4 19 -10 19 -5 0 -10 7 -10 15 0 8 -4 15 -9 15 -5 0 -15 16 -21 35 -6 19 -15
35 -19 35 -4 0 -23 30 -42 68 -19 37 -37 69 -40 72 -3 3 -19 30 -36 60 -16 30
-44 79 -62 108 -17 29 -31 57 -31 62 0 6 -4 10 -10 10 -5 0 -10 7 -10 15 0 8
-4 15 -10 15 -5 0 -10 7 -10 15 0 8 -11 31 -25 51 -14 21 -28 48 -31 61 -4 13
-10 23 -14 23 -12 0 -50 68 -50 90 0 17 23 18 545 18 537 1 545 1 545 -19z
m509 -32 c13 -23 100 -173 192 -334 93 -161 169 -293 169 -295 0 -2 -92 -2
-204 0 l-204 3 -88 152 c-48 84 -93 162 -100 175 -11 22 -14 19 -62 -65 -27
-48 -81 -142 -119 -208 -155 -267 -304 -525 -467 -807 -94 -164 -173 -298
-176 -298 -4 0 -189 318 -198 341 -2 4 39 81 91 171 478 831 672 1166 683
1186 14 22 17 22 237 22 l222 0 24 -43z m-200 -419 c23 -35 41 -68 41 -75 0
-7 4 -13 8 -13 5 0 14 -16 22 -35 8 -19 17 -35 22 -35 4 0 8 -6 8 -13 0 -8 11
-24 26 -38 24 -23 30 -24 204 -26 202 -2 231 3 241 38 4 14 7 17 8 7 1 -9 6
-18 12 -20 10 -3 -42 -112 -61 -128 -3 -3 -14 -23 -25 -45 -10 -22 -38 -70
-62 -108 -23 -37 -43 -71 -43 -75 0 -23 -56 -32 -227 -34 -167 -3 -184 -5
-202 -23 -19 -19 -121 -181 -121 -191 0 -3 -11 -20 -25 -38 -14 -18 -25 -37
-25 -43 0 -6 -11 -26 -24 -46 -13 -19 -22 -38 -18 -41 3 -3 0 -6 -6 -6 -7 0
-12 -7 -12 -15 0 -8 -3 -15 -7 -15 -5 0 -17 -20 -28 -45 -11 -25 -22 -45 -25
-45 -3 0 -18 -26 -35 -58 -16 -31 -33 -58 -37 -60 -5 -2 -8 -9 -8 -16 0 -7
-14 -25 -32 -40 l-32 -26 -189 0 c-150 0 -191 3 -203 14 -12 13 -11 15 6 21
11 3 20 11 20 16 0 5 7 9 15 9 8 0 15 9 15 19 0 11 3 21 8 23 4 2 20 28 36 58
16 30 35 62 42 71 8 8 14 20 14 26 0 6 3 13 8 15 4 2 18 23 31 48 58 111 96
177 118 206 13 17 23 38 23 47 0 10 4 17 9 17 5 0 11 8 14 18 8 23 40 76 50
80 4 2 7 9 7 16 0 6 25 52 55 101 30 50 62 106 72 125 9 19 19 37 22 40 5 4
23 38 66 121 5 10 13 19 17 19 5 0 8 7 8 15 0 8 5 15 10 15 6 0 10 9 10 20 0
11 5 20 10 20 6 0 10 7 10 15 0 8 5 15 10 15 6 0 10 9 10 20 0 11 3 20 8 20 8
0 15 12 47 79 11 22 25 41 32 41 6 0 30 -28 52 -62z"/>
</g>
</svg>
