<?xml version="1.0" standalone="no"?>
<!DOCTYPE svg PUBLIC "-//W3C//DTD SVG 20010904//EN"
 "http://www.w3.org/TR/2001/REC-SVG-20010904/DTD/svg10.dtd">
<svg version="1.0" xmlns="http://www.w3.org/2000/svg"
 width="60.000000pt" height="57.000000pt" viewBox="0 0 60.000000 57.000000"
 preserveAspectRatio="xMidYMid meet">
<metadata>
Created by potrace 1.10, written by Peter Selinger 2001-2011
</metadata>
<g transform="translate(0.000000,57.000000) scale(0.100000,-0.100000)"
fill="#000000" stroke="none">
<path d="M255 420 c-38 -21 -75 -47 -82 -56 -16 -21 -18 -176 -3 -204 11 -21
149 -100 174 -100 21 0 111 45 154 77 l32 24 0 94 c0 92 -1 96 -29 121 -17 14
-41 33 -55 40 -14 8 -38 21 -53 29 -41 22 -61 19 -138 -25z m170 -11 c38 -22
73 -46 77 -52 4 -7 8 -49 8 -94 0 -97 -2 -100 -103 -153 l-67 -35 -57 30 c-31
16 -69 40 -85 53 -27 23 -28 28 -28 106 0 71 3 86 20 101 29 27 132 84 150 85
8 0 47 -18 85 -41z"/>
<path d="M266 382 c-33 -20 -61 -43 -64 -49 -2 -7 11 -21 29 -30 60 -32 89
-68 89 -108 0 -46 -24 -43 -28 3 -2 24 -13 39 -40 57 -20 14 -40 25 -44 25 -5
0 -8 -20 -8 -43 0 -49 8 -59 84 -100 55 -30 60 -32 50 -15 -4 6 -6 37 -5 69 3
63 -11 83 -75 114 -41 19 -42 26 -8 42 21 10 32 9 55 -2 15 -8 36 -15 46 -14
10 0 -2 8 -26 16 l-44 16 33 17 c19 10 41 15 50 12 24 -8 40 -24 34 -33 -3 -5
2 -6 10 -3 24 9 19 20 -18 43 -44 27 -50 26 -120 -17z m5 -161 c3 -13 5 -61 2
-61 -1 0 -14 5 -28 12 -19 9 -25 19 -25 44 0 32 1 33 25 22 14 -6 26 -14 26
-17z"/>
<path d="M401 325 c-49 -29 -79 -31 -107 -10 -22 17 -34 19 -34 5 0 -14 54
-40 83 -40 26 0 83 25 92 41 9 14 35 11 35 -5 0 -9 -7 -12 -18 -10 -10 3 -34
-9 -60 -31 -41 -35 -42 -38 -41 -93 l2 -57 6 56 c7 61 19 83 63 105 24 13 28
13 28 0 0 -8 -13 -24 -30 -36 -26 -18 -30 -28 -30 -66 0 -24 3 -44 6 -44 4 0
24 10 45 22 l39 22 0 83 c0 96 -5 100 -79 58z m49 -147 c-31 -25 -40 -23 -40
9 0 18 10 35 28 49 l27 22 3 -31 c3 -23 -2 -36 -18 -49z"/>
</g>
</svg>
