<?xml version="1.0" standalone="no"?>
<!DOCTYPE svg PUBLIC "-//W3C//DTD SVG 20010904//EN"
 "http://www.w3.org/TR/2001/REC-SVG-20010904/DTD/svg10.dtd">
<svg version="1.0" xmlns="http://www.w3.org/2000/svg"
 width="300.000000pt" height="235.000000pt" viewBox="0 0 300.000000 235.000000"
 preserveAspectRatio="xMidYMid meet">
<metadata>
Created by potrace 1.10, written by Peter Selinger 2001-2011
</metadata>
<g transform="translate(0.000000,235.000000) scale(0.100000,-0.100000)"
fill="#000000" stroke="none">
<path d="M815 2052 c6 -5 80 -31 165 -57 85 -26 236 -73 335 -105 99 -31 254
-81 345 -110 91 -29 185 -63 210 -75 49 -25 112 -87 154 -150 14 -22 26 -35
26 -30 0 24 -76 119 -128 160 -45 36 -80 53 -172 81 -63 20 -182 58 -265 84
-350 112 -481 153 -660 206 -13 4 -17 3 -10 -4z"/>
<path d="M1491 2046 c6 -6 224 -76 235 -75 11 1 -216 79 -230 79 -5 0 -7 -2
-5 -4z"/>
<path d="M755 2010 c22 -4 54 -10 70 -14 27 -6 27 -5 -5 8 -19 8 -51 14 -70
14 l-35 -1 40 -7z"/>
<path d="M873 1983 c14 -4 17 -16 17 -73 0 -133 73 -295 170 -375 13 -11 1 7
-27 40 -85 101 -123 201 -123 328 0 75 -7 89 -43 86 -7 -1 -4 -3 6 -6z"/>
<path d="M2139 1839 c30 -10 56 -17 58 -15 5 5 -86 36 -101 35 -6 0 13 -9 43
-20z"/>
<path d="M2251 1788 c135 -103 201 -333 135 -474 -30 -64 -57 -85 -154 -120
-268 -96 -296 -110 -309 -145 -8 -23 -12 -117 -12 -285 -1 -280 -8 -341 -49
-399 -55 -80 -143 -94 -231 -37 l-41 26 -2 241 -3 240 -3 -230 c-1 -126 0
-240 3 -252 7 -30 97 -73 152 -73 53 0 92 19 127 60 49 58 56 109 57 399 0
185 4 276 13 300 12 34 17 37 201 102 130 47 197 77 218 96 74 70 96 218 52
347 -30 87 -86 169 -141 207 -57 39 -66 37 -13 -3z"/>
<path d="M585 1655 c24 -111 113 -219 229 -276 44 -22 98 -57 119 -77 47 -45
100 -133 127 -210 13 -38 18 -45 14 -22 -10 60 -71 175 -121 228 -30 32 -70
61 -108 78 -128 58 -175 105 -233 233 -18 42 -31 63 -27 46z"/>
<path d="M1090 1514 c0 -2 33 -20 73 -39 109 -52 166 -116 210 -234 18 -50 21
-88 27 -361 6 -268 9 -312 26 -361 37 -103 102 -197 162 -232 20 -11 9 4 -33
46 -66 66 -84 99 -116 207 -16 56 -19 99 -19 308 0 280 -11 358 -67 465 -44
83 -100 134 -192 175 -39 17 -71 29 -71 26z"/>
<path d="M2084 1282 c0 -46 3 -67 7 -52 10 34 11 118 2 123 -5 3 -8 -29 -9
-71z"/>
<path d="M1110 374 c0 -17 59 -106 98 -147 21 -21 53 -47 72 -57 71 -37 96
-35 251 15 164 54 166 55 148 66 -7 4 -16 5 -19 1 -11 -15 -257 -92 -293 -92
-22 0 -54 7 -72 16 -40 19 -131 114 -162 169 -12 22 -22 35 -23 29z"/>
</g>
</svg>
